<svg width="512" height="512" viewBox="0 0 512 512" fill="none" xmlns="http://www.w3.org/2000/svg">
<path d="M379 340C412.59 259.5 399 103.5 334.5 81C270 58.5 179.417 130.5 129 229.5C104.222 278.155 104.5 376.06 182 418.5C259.5 460.941 346.245 418.5 379 340Z" fill="#5F4C8B"/>
<path d="M361.5 335C394.14 267 392 109.5 333 92.5C274 75.5 199.747 143.373 156 229C134.5 271.083 129 358 200 393.5C271 429 337.5 385 361.5 335Z" fill="#F7CAC8"/>
<ellipse cx="250.624" cy="309.125" rx="76.4967" ry="63.1302" transform="rotate(21.6388 250.624 309.125)" fill="#FE6F61"/>
<path d="M266 405.5C266.429 399.5 262.5 372.5 262.5 372.5H247.5C247.5 372.5 244 398 244.5 405C245 412 265.571 411.5 266 405.5Z" fill="#FE6F61"/>
</svg>
